<svg width="25" height="24" viewBox="0 0 25 24" fill="none" xmlns="http://www.w3.org/2000/svg">
<path d="M6.83439 18.7756L6.8349 18.7748L14.6791 6.42324L14.6797 6.42237C14.8355 6.17139 14.9022 5.97055 14.9022 5.75537C14.9022 5.50484 14.8198 5.28911 14.6665 5.13577C14.5131 4.98243 14.2974 4.9 14.0469 4.9C13.8699 4.9 13.7217 4.92881 13.5892 5.00735C13.4579 5.08517 13.3521 5.20577 13.2485 5.36994L13.2483 5.37019L5.87084 17.1265L2.09117 12.1788C1.98245 12.0269 1.86889 11.9136 1.73741 11.839C1.60444 11.7635 1.46013 11.7315 1.29688 11.7315C1.03696 11.7315 0.811597 11.8209 0.650827 11.9792C0.489996 12.1377 0.4 12.3592 0.4 12.6118C0.4 12.8306 0.494296 13.0675 0.662127 13.2796C0.662191 13.2797 0.662254 13.2798 0.662318 13.2798L4.96957 18.7656C4.96967 18.7657 4.96977 18.7658 4.96988 18.766C5.09938 18.9343 5.23536 19.0651 5.39046 19.1536C5.54688 19.2428 5.71777 19.286 5.91211 19.286C6.30434 19.286 6.61751 19.11 6.83439 18.7756Z" fill="white" stroke="white" stroke-width="0.2"/>
</svg>
