<svg width="73" height="72" viewBox="0 0 73 72" fill="none" xmlns="http://www.w3.org/2000/svg">
<g clip-path="url(#clip0_36_3080)">
<path opacity="0.3" d="M66.5 44.9996C66.5 40.0196 62.48 35.9996 57.5 35.9996H53V34.4996C53 25.3796 45.62 17.9996 36.5 17.9996C34.19 17.9996 30.65 17.1296 28.64 17.9996L64.85 54.1496C67.04 52.4996 66.5 47.9696 66.5 44.9996ZM6.5 41.9996C6.5 48.6296 11.87 53.9996 18.5 53.9996H47.69L23.69 29.9996H18.5C11.87 29.9996 6.5 35.3696 6.5 41.9996Z" fill="#0D99FF"/>
<path d="M58.55 30.12C57.5423 25.0131 54.7928 20.4145 50.7712 17.1097C46.7496 13.8049 41.7053 11.9988 36.5 12C34.1275 12 31.8505 12.3818 29.7131 13.0761C27.5349 13.7837 27.1526 16.5126 28.772 18.132V18.132C29.5253 18.8852 30.6566 19.0832 31.6716 18.7599C33.2008 18.2728 34.8103 18 36.5 18C45.62 18 53 25.38 53 34.5V36H57.5C59.39 35.9987 61.2324 36.5932 62.7651 37.6991C64.2978 38.805 65.4429 40.3659 66.0376 42.1599C66.6323 43.954 66.6463 45.8898 66.0776 47.6923C65.8029 48.5631 65.3989 49.3814 64.8836 50.1219C64.0087 51.3791 63.8419 53.1719 64.925 54.2549V54.2549C66.1548 55.4847 68.1578 55.5893 69.2433 54.2304C71.2695 51.6936 72.5 48.5114 72.5 45C72.5 37.08 66.35 30.66 58.55 30.12ZM11.615 13.695C10.4469 14.863 10.4469 16.7569 11.615 17.925L17.81 24.12H16.55C12.1407 24.5965 8.06302 26.6856 5.10047 29.9859C2.13791 33.2863 0.499485 37.565 0.5 42C0.5 51.93 8.57 60 18.5 60H53.69L57.575 63.885C58.7431 65.053 60.6369 65.053 61.805 63.885V63.885C62.9731 62.7169 62.9731 60.823 61.805 59.655L15.845 13.695C14.6769 12.5269 12.7831 12.5269 11.615 13.695V13.695ZM23.69 30L47.69 54H18.5C11.87 54 6.5 48.63 6.5 42C6.5 35.37 11.87 30 18.5 30H23.69Z" fill="#0D99FF"/>
</g>
<defs>
<clipPath id="clip0_36_3080">
<rect width="72" height="72" fill="white" transform="translate(0.5)"/>
</clipPath>
</defs>
</svg>
