<svg width="79" height="58" viewBox="0 0 79 58" fill="none" xmlns="http://www.w3.org/2000/svg">
<path d="M77.25 32.75C76.8206 33.0808 76.2921 33.257 75.75 33.25C75.3619 33.25 74.9791 33.1596 74.632 32.986C74.2848 32.8125 73.9829 32.5605 73.75 32.25C72.2432 30.2245 70.2818 28.5812 68.0239 27.4522C65.7659 26.3232 63.2745 25.7402 60.75 25.75C60.087 25.75 59.4511 25.4866 58.9822 25.0177C58.5134 24.5489 58.25 23.913 58.25 23.25C58.25 22.5869 58.5134 21.951 58.9822 21.4822C59.4511 21.0134 60.087 20.75 60.75 20.75C62.1728 20.7484 63.5659 20.3422 64.7665 19.5787C65.9672 18.8152 66.9258 17.726 67.5307 16.4381C68.1355 15.1502 68.3615 13.7168 68.1823 12.3053C68.0031 10.8938 67.426 9.56243 66.5186 8.46655C65.6111 7.37067 64.4106 6.55553 63.0573 6.11629C61.704 5.67705 60.2536 5.63184 58.8755 5.98592C57.4975 6.34001 56.2486 7.07879 55.2746 8.11601C54.3006 9.15324 53.6418 10.4461 53.375 11.8437C53.3265 12.1779 53.2108 12.4988 53.0348 12.7871C52.8589 13.0753 52.6264 13.3249 52.3513 13.5208C52.0763 13.7168 51.7644 13.8549 51.4344 13.927C51.1045 13.999 50.7634 14.0035 50.4317 13.9401C50.1 13.8768 49.7846 13.7468 49.5045 13.5582C49.2244 13.3696 48.9854 13.1261 48.802 12.8426C48.6185 12.5591 48.4944 12.2413 48.4371 11.9085C48.3799 11.5757 48.3906 11.2348 48.4688 10.9062C48.8396 8.96191 49.667 7.13349 50.8826 5.57141C52.0982 4.00934 53.6675 2.75829 55.4611 1.92122C57.2547 1.08414 59.2215 0.684987 61.1996 0.756597C63.1777 0.828208 65.1104 1.36854 66.8389 2.33312C68.5673 3.2977 70.0419 4.65895 71.1414 6.30483C72.2409 7.95072 72.9339 9.83418 73.1632 11.8002C73.3925 13.7662 73.1517 15.7586 72.4605 17.6134C71.7693 19.4681 70.6475 21.1322 69.1875 22.4687C72.5853 23.942 75.5375 26.2801 77.75 29.25C77.947 29.5126 78.0903 29.8115 78.1718 30.1295C78.2533 30.4475 78.2713 30.7785 78.2249 31.1035C78.1785 31.4285 78.0685 31.7412 77.9012 32.0237C77.7339 32.3062 77.5127 32.553 77.25 32.75ZM59.75 53.4062C60.0322 54.0042 60.0692 54.6888 59.8531 55.3136C59.637 55.9385 59.185 56.454 58.5938 56.75C58.2489 56.9035 57.8774 56.9885 57.5 57C57.0316 56.9967 56.5732 56.8635 56.176 56.6153C55.7788 56.367 55.4582 56.0134 55.25 55.5937C53.8084 52.6448 51.5679 50.1598 48.7834 48.4216C45.999 46.6835 42.7824 45.762 39.5 45.762C36.2176 45.762 33.0011 46.6835 30.2166 48.4216C27.4322 50.1598 25.1916 52.6448 23.75 55.5937C23.6066 55.8893 23.4062 56.1538 23.1605 56.3719C22.9147 56.5901 22.6284 56.7577 22.3178 56.865C22.0073 56.9724 21.6786 57.0175 21.3506 56.9978C21.0226 56.978 20.7017 56.8938 20.4063 56.75C19.815 56.454 19.363 55.9385 19.1469 55.3136C18.9309 54.6888 18.9679 54.0042 19.25 53.4062C21.5734 48.6222 25.5142 44.8143 30.375 42.6562C27.8869 40.7492 26.0589 38.1106 25.1477 35.1111C24.2365 32.1116 24.2879 28.902 25.2948 25.9332C26.3016 22.9645 28.2133 20.3858 30.7612 18.5595C33.3091 16.7331 36.3652 15.751 39.5 15.751C42.6349 15.751 45.6909 16.7331 48.2388 18.5595C50.7867 20.3858 52.6984 22.9645 53.7053 25.9332C54.7121 28.902 54.7636 32.1116 53.8523 35.1111C52.9411 38.1106 51.1131 40.7492 48.625 42.6562C53.4859 44.8143 57.4266 48.6222 59.75 53.4062ZM39.5 40.75C41.4778 40.75 43.4112 40.1635 45.0557 39.0647C46.7002 37.9658 47.9819 36.4041 48.7388 34.5768C49.4957 32.7495 49.6937 30.7389 49.3079 28.7991C48.922 26.8592 47.9696 25.0774 46.5711 23.6789C45.1726 22.2804 43.3907 21.328 41.4509 20.9421C39.5111 20.5563 37.5004 20.7543 35.6732 21.5112C33.8459 22.268 32.2841 23.5498 31.1853 25.1943C30.0865 26.8388 29.5 28.7722 29.5 30.75C29.5083 33.3996 30.5645 35.9383 32.438 37.8119C34.3116 39.6855 36.8504 40.7417 39.5 40.75ZM20.75 23.25C20.75 22.5869 20.4866 21.951 20.0178 21.4822C19.5489 21.0134 18.9131 20.75 18.25 20.75C16.8272 20.7484 15.4341 20.3422 14.2335 19.5787C13.0329 18.8152 12.0742 17.726 11.4694 16.4381C10.8645 15.1502 10.6385 13.7168 10.8178 12.3053C10.997 10.8938 11.574 9.56243 12.4814 8.46655C13.3889 7.37067 14.5894 6.55553 15.9427 6.11629C17.2961 5.67705 18.7464 5.63184 20.1245 5.98592C21.5026 6.34001 22.7515 7.07879 23.7254 8.11601C24.6994 9.15324 25.3582 10.4461 25.625 11.8437C25.6735 12.1779 25.7892 12.4988 25.9652 12.7871C26.1411 13.0753 26.3736 13.3249 26.6487 13.5208C26.9238 13.7168 27.2357 13.8549 27.5656 13.927C27.8955 13.999 28.2366 14.0035 28.5683 13.9401C28.9 13.8768 29.2154 13.7468 29.4955 13.5582C29.7756 13.3696 30.0146 13.1261 30.1981 12.8426C30.3815 12.5591 30.5056 12.2413 30.5629 11.9085C30.6201 11.5757 30.6094 11.2348 30.5313 10.9062C30.1604 8.96191 29.3331 7.13349 28.1174 5.57141C26.9018 4.00934 25.3326 2.75829 23.5389 1.92122C21.7453 1.08414 19.7785 0.684987 17.8004 0.756597C15.8224 0.828208 13.8896 1.36854 12.1612 2.33312C10.4327 3.2977 8.95809 4.65895 7.85859 6.30483C6.75908 7.95072 6.06615 9.83418 5.83683 11.8002C5.60751 13.7662 5.84835 15.7586 6.53954 17.6134C7.23072 19.4681 8.35249 21.1322 9.81251 22.4687C6.41474 23.942 3.46247 26.2801 1.25001 29.25C0.852185 29.7804 0.681368 30.4471 0.775136 31.1035C0.868905 31.7599 1.21958 32.3521 1.75001 32.75C2.17941 33.0808 2.70796 33.257 3.25001 33.25C3.63812 33.25 4.02091 33.1596 4.36804 32.986C4.71518 32.8125 5.01714 32.5605 5.25001 32.25C6.75684 30.2245 8.71818 28.5812 10.9761 27.4522C13.2341 26.3232 15.7256 25.7402 18.25 25.75C18.9131 25.75 19.5489 25.4866 20.0178 25.0177C20.4866 24.5489 20.75 23.913 20.75 23.25Z" fill="#0D99FF"/>
</svg>
